STARTFONT 2.1
FONT -Monotype-Courier-Regular-I-Normal--50-360-100-100-M-262-iso8859-2
SIZE 36 100 100
FONTBOUNDINGBOX 43 53 -2 -13

STARTPROPERTIES 24
FOUNDRY "Monotype"
FAMILY_NAME "Courier"
WEIGHT_NAME "Regular"
SLANT "I"
SETWIDTH_NAME "Normal"
ADD_STYLE_NAME ""
PIXEL_SIZE 50
POINT_SIZE 360
RESOLUTION_X 100
RESOLUTION_Y 100
SPACING "M"
AVERAGE_WIDTH 262
CHARSET_REGISTRY "iso8859"
CHARSET_ENCODING "2"
FACE_NAME "Courier Italic ISO Latin2"
_DEC_DEVICE_FONTNAMES "PS=courier-it-lat2"
COPYRIGHT "Copyright (c) 1993 Monotype Typography Ltd."
CAP_HEIGHT 31
X_HEIGHT 23
WEIGHT 10
QUAD_WIDTH 32
DEFAULT_CHAR 160
FONT_DESCENT 14
FONT_ASCENT 42
ENDPROPERTIES

CHARS 191

STARTCHAR space
ENCODING 32
SWIDTH 600 0
DWIDTH 30 0
BBX 0 0 0 0
BITMAP
ENDCHAR

STARTCHAR exclam
ENCODING 33
SWIDTH 600 0
DWIDTH 30 0
BBX 14 33 10 -1
BITMAP
0038
0078
0078
0070
0070
00F0
00F0
00E0
00E0
00E0
00E0
01C0
01C0
01C0
01C0
0180
0180
0380
0380
0300
0300
0000
0000
0000
0000
0000
0000
0000
1F00
3F00
3F00
3F00
1E00
ENDCHAR

STARTCHAR quotedbl
ENCODING 34
SWIDTH 600 0
DWIDTH 30 0
BBX 20 14 11 16
BITMAP
3F0FE0
3F0FC0
3E0FC0
3E0FC0
3E0F80
3C0F80
3C0F80
7C0F00
780F00
780E00
780E00
700E00
700C00
200000
ENDCHAR

STARTCHAR numbersign
ENCODING 35
SWIDTH 600 0
DWIDTH 30 0
BBX 26 36 5 -3
BITMAP
00030400
00070C00
00060C00
00060C00
00061800
000C1800
000C1800
000C3000
000C3000
00183000
00183000
00186000
00306000
07FFFF00
07FFFF00
0030C000
0060C000
0060C000
00618000
00C18000
00C18000
3FFFFC00
3FFFF800
01830000
01830000
01860000
03060000
03060000
030C0000
030C0000
060C0000
060C0000
06180000
0C180000
0C180000
0C100000
ENDCHAR

STARTCHAR dollar
ENCODING 36
SWIDTH 600 0
DWIDTH 30 0
BBX 26 38 5 -4
BITMAP
0000C000
0000C000
0000C000
00018000
0007F000
001FFD80
00781F00
00E00700
01C00300
01800300
03000200
03000000
03000000
03000000
03800000
01F00000
00FF0000
001FE000
0001F800
00003C00
00001C00
00000C00
00000C00
00000C00
30001C00
30001800
38003000
3C007000
3F03C000
67FF8000
01FC0000
00600000
00600000
00600000
00600000
00C00000
00C00000
00C00000
ENDCHAR

STARTCHAR percent
ENCODING 37
SWIDTH 600 0
DWIDTH 30 0
BBX 25 33 7 -1
BITMAP
001C0000
007F0000
00C18000
01808000
0300C000
0200C000
0200C000
06008000
06008000
06018000
02030000
03060000
01FC0000
00700600
00003E00
0001E000
000F0000
00780000
07C00000
3E000000
30078000
001FC000
00306000
00603000
00C03000
00803000
00803000
01802000
01806000
00804000
00C18000
007F0000
001C0000
ENDCHAR

STARTCHAR ampersand
ENCODING 38
SWIDTH 600 0
DWIDTH 30 0
BBX 23 27 6 -1
BITMAP
0007C0
001FF8
003870
007000
006000
00C000
00C000
00C000
00C000
00E000
006000
006000
00F000
03F000
07381C
0C183C
1C1870
181C60
300CC0
300EC0
300780
300700
380700
380F80
1C3DF0
0FF1E0
07E000
ENDCHAR

STARTCHAR quoteright
ENCODING 39
SWIDTH 600 0
DWIDTH 30 0
BBX 16 15 9 16
BITMAP
00FE
00FC
01F8
01F0
03F0
03E0
07C0
0780
0F80
0F00
1E00
1C00
3C00
3800
3000
ENDCHAR

STARTCHAR parenleft
ENCODING 40
SWIDTH 600 0
DWIDTH 30 0
BBX 15 37 16 -6
BITMAP
0008
0018
0038
0070
0060
00C0
01C0
0380
0380
0700
0700
0E00
0E00
1C00
1C00
3800
3800
3800
3800
7000
7000
7000
7000
7000
7000
7000
7000
7000
3000
3800
3800
3800
1800
1C00
1C00
0C00
0C00
ENDCHAR

STARTCHAR parenright
ENCODING 41
SWIDTH 600 0
DWIDTH 30 0
BBX 16 37 5 -6
BITMAP
0060
0070
0070
0030
0038
0038
0038
0018
001C
001C
001C
001C
001C
001C
001C
001C
001C
001C
003C
0038
0038
0038
0070
0070
00E0
00E0
00C0
01C0
0380
0380
0700
0600
0E00
1C00
1800
3000
2000
ENDCHAR

STARTCHAR asterisk
ENCODING 42
SWIDTH 600 0
DWIDTH 30 0
BBX 22 18 9 13
BITMAP
001800
001800
001800
001800
001000
003000
303030
3E31F0
1FFFC0
03FE00
00F000
00F800
01B800
031C00
061C00
0C0E00
180E00
100600
ENDCHAR

STARTCHAR plus
ENCODING 43
SWIDTH 600 0
DWIDTH 30 0
BBX 26 25 5 1
BITMAP
00018000
00030000
00030000
00030000
00030000
00070000
00060000
00060000
00060000
00060000
000C0000
3FFFFF80
3FFFFF00
000C0000
000C0000
00180000
00180000
00180000
00180000
00380000
00300000
00300000
00300000
00300000
00200000
ENDCHAR

STARTCHAR comma
ENCODING 44
SWIDTH 600 0
DWIDTH 30 0
BBX 17 14 7 -7
BITMAP
00FC00
00FC00
01F800
01F000
03E000
03E000
07C000
078000
0F0000
0F0000
1E0000
1C0000
380000
380000
ENDCHAR

STARTCHAR minus
ENCODING 45
SWIDTH 600 0
DWIDTH 30 0
BBX 26 2 5 13
BITMAP
3FFFFF80
3FFFFF00
ENDCHAR

STARTCHAR period
ENCODING 46
SWIDTH 600 0
DWIDTH 30 0
BBX 10 7 11 -1
BITMAP
0E00
3F00
3F80
7F80
7F00
3F00
1C00
ENDCHAR

STARTCHAR slash
ENCODING 47
SWIDTH 600 0
DWIDTH 30 0
BBX 30 38 3 -4
BITMAP
00000010
00000030
00000070
00000060
000000C0
000001C0
00000180
00000300
00000600
00000600
00000C00
00001800
00001800
00003000
00006000
0000E000
0000C000
00018000
00038000
00030000
00060000
000E0000
000C0000
00180000
00380000
00300000
00600000
00E00000
00C00000
01800000
03800000
03000000
06000000
0E000000
0C000000
18000000
38000000
30000000
ENDCHAR

STARTCHAR zero
ENCODING 48
SWIDTH 600 0
DWIDTH 30 0
BBX 25 33 6 -1
BITMAP
0007E000
001FF000
00383800
00601C00
00C00C00
01800E00
03800600
03000600
07000600
06000600
0E000600
0C000600
0C000600
0C000600
18000E00
18000C00
18000C00
18000C00
18000C00
30001800
30001800
30001800
30003800
30003000
30003000
30006000
3800E000
3800C000
18018000
1C030000
0E0E0000
07FC0000
03F00000
ENDCHAR

STARTCHAR one
ENCODING 49
SWIDTH 600 0
DWIDTH 30 0
BBX 22 32 4 0
BITMAP
000060
0003C0
003FC0
00FCC0
01E0C0
0001C0
000180
000180
000180
000180
000300
000300
000300
000300
000300
000600
000600
000600
000600
000600
000C00
000C00
000C00
000C00
000C00
001800
001800
001800
001800
001800
3FFFF8
3FFFF0
ENDCHAR

STARTCHAR two
ENCODING 50
SWIDTH 600 0
DWIDTH 30 0
BBX 28 32 3 0
BITMAP
0001F800
0007FE00
001E0F00
00380380
007001C0
00E000C0
00C000C0
018000C0
000000C0
000000C0
00000180
00000180
00000300
00000600
00000C00
00001800
00007000
0000E000
0001C000
00038000
00060000
001C0000
00380000
00700000
01E00000
03800000
07000000
0E000000
38000C00
30000C00
3FFFF800
7FFFF800
ENDCHAR

STARTCHAR three
ENCODING 51
SWIDTH 600 0
DWIDTH 30 0
BBX 27 33 4 -1
BITMAP
0003F800
000FFE00
003C0F00
00700700
00C00380
00000180
00000180
00000180
00000180
00000300
00000300
00000600
00000C00
00007800
000FF000
000FF000
00007800
00003C00
00000C00
00000E00
00000600
00000600
00000600
00000600
00000600
00000C00
00001C00
00001800
30003000
3C00E000
1F03C000
0FFF0000
01FC0000
ENDCHAR

STARTCHAR four
ENCODING 52
SWIDTH 600 0
DWIDTH 30 0
BBX 23 31 6 0
BITMAP
000078
0000F8
000198
000398
000330
000630
000C30
001C30
003830
003060
006060
00C060
01C060
018060
0300C0
0600C0
0C00C0
1C00C0
180180
300180
7FFFF0
7FFFF0
000180
000300
000300
000300
000300
000300
000600
00FFC0
00FFC0
ENDCHAR

STARTCHAR five
ENCODING 53
SWIDTH 600 0
DWIDTH 30 0
BBX 26 32 4 -1
BITMAP
007FFF80
007FFF80
00600000
00600000
00E00000
00C00000
00C00000
00C00000
00C00000
01C00000
01800000
018FE000
01FFF800
01F03C00
01801C00
00000E00
00000600
00000600
00000600
00000600
00000600
00000600
00000C00
00000C00
00001C00
00001800
20003000
70007000
3C00E000
1F078000
07FF0000
01FC0000
ENDCHAR

STARTCHAR six
ENCODING 54
SWIDTH 600 0
DWIDTH 30 0
BBX 26 33 8 -1
BITMAP
00007E00
0003FF00
000F8200
001C0000
00700000
00E00000
01C00000
03800000
03000000
06000000
0E000000
0C000000
08000000
181F0000
187FC000
11E1E000
3380E000
37007000
3E003000
3C003000
38003000
30003000
30003000
30003000
30006000
30006000
3000E000
3800C000
18018000
1C030000
0E0E0000
07FC0000
03F00000
ENDCHAR

STARTCHAR seven
ENCODING 55
SWIDTH 600 0
DWIDTH 30 0
BBX 23 31 9 0
BITMAP
1FFFF8
3FFFF8
300018
300018
300030
000030
000060
0000E0
0000C0
0001C0
000180
000380
000300
000600
000600
000C00
000C00
001800
001800
003000
003000
006000
006000
00C000
00C000
018000
018000
030000
030000
060000
060000
ENDCHAR

STARTCHAR eight
ENCODING 56
SWIDTH 600 0
DWIDTH 30 0
BBX 26 33 5 -1
BITMAP
0003F000
001FF800
003C3C00
00700E00
00C00700
01C00700
01800300
03800300
03000300
03000700
03000600
03000E00
03801C00
01C03800
01E0F000
007FC000
00FFC000
01E0E000
07007000
0E003800
0C001800
18001800
18001800
30001800
30001800
30003800
30003000
38006000
1800E000
1C01C000
0F078000
07FE0000
01F80000
ENDCHAR

STARTCHAR nine
ENCODING 57
SWIDTH 600 0
DWIDTH 30 0
BBX 26 33 5 -1
BITMAP
0003F000
000FF800
001C1C00
00300E00
00600600
00C00700
00C00300
01800300
01800300
03000300
03000300
03000300
03000700
03000F00
03801F00
03803B00
01C07300
00E1E700
00FF8600
003E0600
00000600
00000C00
00000C00
00001800
00003800
00007000
0000E000
0001C000
00038000
000F0000
307C0000
3FF00000
1FC00000
ENDCHAR

STARTCHAR colon
ENCODING 58
SWIDTH 600 0
DWIDTH 30 0
BBX 13 22 11 -1
BITMAP
01C0
07E0
07F0
0FF0
0FE0
07E0
0380
0000
0000
0000
0000
0000
0000
0000
0000
0E00
3F00
3F80
7F80
7F00
3F00
1C00
ENDCHAR

STARTCHAR semicolon
ENCODING 59
SWIDTH 600 0
DWIDTH 30 0
BBX 18 26 8 -5
BITMAP
000E00
003F00
003F80
007F80
007F00
003F00
001C00
000000
000000
000000
000000
000000
000000
000000
01F800
03F000
07E000
07C000
0FC000
0F8000
1F0000
1E0000
3C0000
380000
780000
700000
ENDCHAR

STARTCHAR less
ENCODING 60
SWIDTH 600 0
DWIDTH 30 0
BBX 29 25 4 2
BITMAP
00000030
000000F0
000003C0
00000F00
00003C00
0000F000
0003C000
000F0000
003C0000
00F00000
03C00000
0F000000
3C000000
1E000000
0F000000
03C00000
01F00000
00780000
003E0000
000F0000
0003C000
0001E000
00007800
00003E00
00000E00
ENDCHAR

STARTCHAR equal
ENCODING 61
SWIDTH 600 0
DWIDTH 30 0
BBX 30 9 3 10
BITMAP
0FFFFFF0
1FFFFFF0
00000000
00000000
00000000
00000000
00000000
3FFFFFE0
3FFFFFE0
ENDCHAR

STARTCHAR greater
ENCODING 62
SWIDTH 600 0
DWIDTH 30 0
BBX 29 25 3 2
BITMAP
01000000
03C00000
01F00000
00780000
003E0000
000F0000
0003C000
0001E000
00007800
00003E00
00000F00
000007C0
000001E0
000003C0
00000F00
00003C00
0000F000
0003C000
000F0000
003C0000
00F00000
03C00000
0F000000
3C000000
70000000
ENDCHAR

STARTCHAR question
ENCODING 63
SWIDTH 600 0
DWIDTH 30 0
BBX 21 31 10 -1
BITMAP
00FE00
07FF80
1F03C0
3801C0
3000E0
300060
300060
000060
000060
000060
0000C0
0001C0
000380
000700
001E00
00F800
01E000
018000
018000
030000
030000
000000
000000
000000
000000
000000
1F8000
3F8000
3F8000
3F8000
1F0000
ENDCHAR

STARTCHAR at
ENCODING 64
SWIDTH 600 0
DWIDTH 30 0
BBX 25 35 5 -3
BITMAP
0003F000
000FF800
003C1C00
00700E00
00E00600
00C00600
01800600
03800600
03000600
07000600
06001C00
0601FC00
0C03EC00
0C0F0C00
0C0C0C00
0C181800
1C181800
18301800
18301800
18303000
18383000
301C3000
301FF800
3007F000
30000000
30000000
30000000
30000000
38000000
18000000
18000000
1C00C000
0F078000
07FF0000
01F80000
ENDCHAR

STARTCHAR A
ENCODING 65
SWIDTH 600 0
DWIDTH 30 0
BBX 32 29 0 0
BITMAP
000FFF00
000FFF00
00001B00
00003300
00003380
00006180
00006180
0000C180
0001C180
00018180
000301C0
000300C0
000600C0
000600C0
000C00C0
001800C0
001800E0
003FFFE0
003FFFE0
00600060
00600060
00C00060
01800070
01800030
03000030
03000030
06000030
3FF007FE
3FF007FE
ENDCHAR

STARTCHAR B
ENCODING 66
SWIDTH 600 0
DWIDTH 30 0
BBX 31 29 1 0
BITMAP
00FFFF80
00FFFFE0
001800F0
00180038
00180038
00180018
00300018
00300018
00300018
00300030
00300070
006000E0
00600780
007FFF00
007FFF80
00C003E0
00C000E0
00C00070
00C00030
00800030
01800030
01800030
01800060
01800060
010000C0
030001C0
03000780
3FFFFE00
3FFFF800
ENDCHAR

STARTCHAR C
ENCODING 67
SWIDTH 600 0
DWIDTH 30 0
BBX 30 30 4 0
BITMAP
0003FC00
000FFF30
003C07B0
007001F0
00E000F0
01800070
03000060
07000060
06000060
0C000000
0C000000
1C000000
18000000
18000000
18000000
38000000
30000000
30000000
30000000
30000000
30000000
30000000
38000000
18000300
1C000700
0E000E00
07001C00
03C0F000
01FFC000
007F0000
ENDCHAR

STARTCHAR D
ENCODING 68
SWIDTH 600 0
DWIDTH 30 0
BBX 31 29 2 0
BITMAP
01FFFE00
01FFFF80
003003C0
003000E0
00300070
00600030
00600038
00600018
00600018
00600018
00C00018
00C00018
00C00018
00C00018
00C00030
01800030
01800030
01800030
01800060
03800060
030000C0
030000C0
03000180
03000300
06000600
06001C00
06007800
3FFFF000
3FFF8000
ENDCHAR

STARTCHAR E
ENCODING 69
SWIDTH 600 0
DWIDTH 30 0
BBX 32 29 1 0
BITMAP
01FFFFFC
01FFFFFC
0018000C
00180018
00300018
00300018
00300018
00300018
00300010
00601800
00601800
00603000
00603000
007FF000
00FFF000
00C03000
00C06000
00C06000
01C06000
01800020
01800060
01800060
01800060
038000C0
030000C0
030000C0
030000C0
3FFFFF80
3FFFFF80
ENDCHAR

STARTCHAR F
ENCODING 70
SWIDTH 600 0
DWIDTH 30 0
BBX 33 29 3 0
BITMAP
01FFFFFE00
01FFFFFE00
0018000600
0018000600
0018000C00
0030000C00
0030000C00
0030000C00
0030000800
0030180000
0060180000
0060180000
0060300000
007FF00000
007FF00000
00C0300000
00C0300000
00C0600000
00C0600000
01C0000000
0180000000
0180000000
0180000000
0180000000
0380000000
0300000000
0300000000
3FFF000000
3FFF000000
ENDCHAR

STARTCHAR G
ENCODING 71
SWIDTH 600 0
DWIDTH 30 0
BBX 30 30 3 0
BITMAP
0001FC00
000FFF98
001E03F0
007800F0
00E00070
01C00070
03800030
03000060
06000000
06000000
0C000000
0C000000
18000000
18000000
18000000
18000000
18000000
3001FFE0
3001FFE0
30000180
30000180
30000300
30000300
38000300
18000300
1C000300
0F000600
07C03E00
01FFF800
007F8000
ENDCHAR

STARTCHAR H
ENCODING 72
SWIDTH 600 0
DWIDTH 30 0
BBX 32 29 2 0
BITMAP
00FF83FE
00FF83FE
00300030
00300020
00300020
00300060
00300060
00600060
00600040
00600040
006000C0
006000C0
00C00080
00FFFF80
00FFFF80
00800180
01800180
01800300
01800300
01800300
01000300
03000300
03000600
03000600
03000600
02000600
06000600
7FE0FFC0
7FE0FFC0
ENDCHAR

STARTCHAR I
ENCODING 73
SWIDTH 600 0
DWIDTH 30 0
BBX 28 29 4 0
BITMAP
00FFFFC0
00FFFFC0
0000C000
00018000
00018000
00018000
00018000
00018000
00030000
00030000
00030000
00030000
00070000
00060000
00060000
00060000
00060000
000C0000
000C0000
000C0000
000C0000
000C0000
00180000
00180000
00180000
00180000
00180000
3FFFF800
3FFFF000
ENDCHAR

STARTCHAR J
ENCODING 74
SWIDTH 600 0
DWIDTH 30 0
BBX 34 29 3 0
BITMAP
0001FFFF00
0001FFFF00
000000C000
0000018000
0000018000
0000018000
0000018000
0000030000
0000030000
0000030000
0000030000
0000030000
0000060000
0000060000
0000060000
0000060000
0C000E0000
0C000C0000
18000C0000
18000C0000
18000C0000
1800180000
3000180000
3000300000
3800700000
1C00E00000
0F03800000
07FF000000
01F8000000
ENDCHAR

STARTCHAR K
ENCODING 75
SWIDTH 600 0
DWIDTH 30 0
BBX 34 29 2 0
BITMAP
00FFE0FF80
00FFC0FF80
0018001C00
0018003800
001800E000
001801C000
0030038000
00300E0000
00301C0000
0030380000
0030E00000
0061C00000
0063C00000
0067E00000
007C700000
00F8380000
00F01C0000
00C00C0000
00C00E0000
00C0060000
0180060000
0180070000
0180030000
0180030000
0180030000
0300030000
0300038000
3FF801F000
3FF801F000
ENDCHAR

STARTCHAR L
ENCODING 76
SWIDTH 600 0
DWIDTH 30 0
BBX 29 29 2 0
BITMAP
01FFF800
01FFF800
00060000
00060000
00060000
000C0000
000C0000
000C0000
000C0000
001C0000
00180000
00180000
00180000
00180000
00300000
00300000
00300000
00300020
00300060
00600060
00600060
00600060
006000E0
006000C0
00C000C0
00C000C0
00C000C0
3FFFFF80
7FFFFF80
ENDCHAR

STARTCHAR M
ENCODING 77
SWIDTH 600 0
DWIDTH 30 0
BBX 38 29 -1 0
BITMAP
00FE0003F0
00FE0007F0
0036000D80
0036000D80
0037001980
0033003980
0063003300
0063006300
0063006300
006380C300
0061818700
00C1818600
00C1830600
00C1C70600
00C0C60600
00C0CC0C00
0180DC0C00
0180D80C00
0180F00C00
0180700C00
0180001800
0300001800
0300001800
0300001800
0300001800
0700003000
0600003000
3FF007FE00
3FF007FE00
ENDCHAR

STARTCHAR N
ENCODING 78
SWIDTH 600 0
DWIDTH 30 0
BBX 35 29 1 0
BITMAP
03F801FF80
03FC01FF80
003C000C00
003C001800
006E001800
0066001800
0066001800
0067001800
0063003000
00C3803000
00C1803000
00C1803000
00C1C07000
00C0C06000
0180C06000
0180E06000
0180606000
018060C000
038030C000
030030C000
030038C000
030018C000
0300198000
06001D8000
06000D8000
06000D8000
06000F8000
3FF0070000
3FE0070000
ENDCHAR

STARTCHAR O
ENCODING 79
SWIDTH 600 0
DWIDTH 30 0
BBX 30 30 3 0
BITMAP
0001FC00
000FFF00
001E0780
007803C0
00E001C0
01C000E0
03800060
03000070
06000030
0E000030
0C000030
0C000030
18000030
18000030
18000030
30000030
30000060
30000060
30000060
300000C0
300001C0
38000180
38000300
18000700
1C000E00
0E001C00
0F003800
07C1E000
01FFC000
007E0000
ENDCHAR

STARTCHAR P
ENCODING 80
SWIDTH 600 0
DWIDTH 30 0
BBX 31 29 3 0
BITMAP
00FFFF80
00FFFFC0
001801E0
00180070
00180038
00180018
00180018
00300018
00300018
00300018
00300030
00300070
006000E0
006001C0
00600F80
007FFE00
00FFF800
00C00000
00C00000
00C00000
00C00000
01800000
01800000
01800000
01800000
01800000
03000000
3FFF8000
3FFF0000
ENDCHAR

STARTCHAR Q
ENCODING 81
SWIDTH 600 0
DWIDTH 30 0
BBX 30 35 3 -5
BITMAP
0001FC00
000FFF00
001E0780
007803C0
00E001C0
01C000E0
03800060
03000070
06000030
0E000030
0C000030
0C000030
18000030
18000030
18000030
30000030
30000060
30000060
30000060
300000C0
300001C0
38000180
38000300
18000700
1C000E00
0E001C00
0F003800
07C1E000
01FFC000
007E0000
00E00000
01C00000
07FF0700
0FFFFE00
1F01FC00
ENDCHAR

STARTCHAR R
ENCODING 82
SWIDTH 600 0
DWIDTH 30 0
BBX 31 29 0 0
BITMAP
00FFFF80
00FFFFC0
001801F0
00180070
00180038
00180018
00380018
00300018
00300018
00300030
00300070
007000E0
006001C0
00600F80
007FFE00
007FF000
00C03800
00C01C00
00C00E00
00C00700
00C00300
01800380
01800180
01800180
018001C0
018000C0
030000E0
3FF80078
3FF80078
ENDCHAR

STARTCHAR S
ENCODING 83
SWIDTH 600 0
DWIDTH 30 0
BBX 29 30 3 0
BITMAP
0003F800
000FFE60
001C07E0
003003E0
006001C0
00C000C0
00C000C0
018000C0
01800080
01800000
01800000
01C00000
00F00000
007E0000
001FF000
0001FC00
00001E00
00000700
00000300
00000300
00000300
18000300
18000300
18000600
18000E00
3C001C00
3E003800
3780F000
33FFC000
00FE0000
ENDCHAR

STARTCHAR T
ENCODING 84
SWIDTH 600 0
DWIDTH 30 0
BBX 28 29 6 0
BITMAP
0FFFFFC0
1FFFFFC0
180300C0
180600C0
180600C0
30060180
30060180
30060180
300C0180
300C0180
200C0100
000C0000
00180000
00180000
00180000
00180000
00180000
00300000
00300000
00300000
00300000
00300000
00600000
00600000
00600000
00600000
00600000
3FFF8000
3FFF8000
ENDCHAR

STARTCHAR U
ENCODING 85
SWIDTH 600 0
DWIDTH 30 0
BBX 31 29 5 0
BITMAP
1FF81FF8
1FF81FF8
030000C0
03000180
06000180
06000180
06000180
06000300
04000300
0C000300
0C000300
0C000300
0C000600
18000600
18000600
18000600
18000600
18000C00
30000C00
30000C00
30000C00
30001800
30003800
38003000
18006000
1C01C000
0F078000
07FF0000
01F80000
ENDCHAR

STARTCHAR V
ENCODING 86
SWIDTH 600 0
DWIDTH 30 0
BBX 32 29 5 0
BITMAP
3FF00FFC
7FE00FFC
0C000060
0C0000C0
0E0000C0
06000180
06000180
06000300
06000700
06000600
07000C00
03000C00
03001800
03003800
03003000
03006000
03806000
0180C000
0180C000
01818000
01838000
01830000
00C60000
00C60000
00CC0000
00DC0000
00D80000
00F00000
00700000
ENDCHAR

STARTCHAR W
ENCODING 87
SWIDTH 600 0
DWIDTH 30 0
BBX 31 29 5 0
BITMAP
3FF00FFC
3FF00FFC
0C000060
0C000060
1C000060
180000C0
180700C0
180700C0
180F0180
180F8180
181B8180
18198180
18318300
18318300
18618300
30618600
30C18600
30C18600
31818C00
31818C00
33018C00
33019800
36019800
3601D800
3E00F000
6C00F000
7C00F000
7800E000
7800E000
ENDCHAR

STARTCHAR X
ENCODING 88
SWIDTH 600 0
DWIDTH 30 0
BBX 35 29 0 0
BITMAP
00FF007F80
00FF007F80
0038000C00
0018001800
001C003000
000C007000
000E00E000
000601C000
0007038000
0003870000
00038E0000
0001DC0000
0000F80000
0000F00000
0000E00000
0001F00000
0003B00000
0007380000
000E1C0000
001C0C0000
00380E0000
0070060000
00E0070000
01C0030000
0180038000
0300018000
060000C000
3FE01FF000
3FE01FF000
ENDCHAR

STARTCHAR Y
ENCODING 89
SWIDTH 600 0
DWIDTH 30 0
BBX 29 29 6 0
BITMAP
3FC01FE0
3FC01FE0
0E000300
06000600
07000C00
03001800
03803800
01807000
01C0E000
00C0C000
00C18000
00E30000
00660000
007E0000
003C0000
00380000
00300000
00300000
00300000
00300000
00600000
00600000
00600000
00600000
00600000
00C00000
00C00000
7FFF8000
7FFF0000
ENDCHAR

STARTCHAR Z
ENCODING 90
SWIDTH 600 0
DWIDTH 30 0
BBX 27 29 4 0
BITMAP
00FFFFC0
00FFFFC0
00C00180
00C00380
01800700
01800E00
01800C00
01801800
03003000
00006000
0000C000
0001C000
00038000
00070000
000E0000
001C0000
00180000
00300000
00600200
00C00600
01800600
03000600
07000C00
0E000C00
1C000C00
38000C00
30000800
3FFFF800
7FFFF800
ENDCHAR

STARTCHAR bracketleft
ENCODING 91
SWIDTH 600 0
DWIDTH 30 0
BBX 19 37 11 -6
BITMAP
007FC0
007F80
006000
006000
006000
00C000
00C000
00C000
00C000
00C000
018000
018000
018000
018000
030000
030000
030000
030000
030000
060000
060000
060000
060000
060000
0C0000
0C0000
0C0000
0C0000
1C0000
180000
180000
180000
180000
300000
300000
3FC000
3FC000
ENDCHAR

STARTCHAR backslash
ENCODING 92
SWIDTH 600 0
DWIDTH 30 0
BBX 14 38 11 -4
BITMAP
3000
3000
3000
3000
3800
1800
1800
1800
1C00
0C00
0C00
0C00
0E00
0600
0600
0600
0700
0300
0300
0300
0380
0180
0180
0180
01C0
00C0
00C0
00C0
00E0
0060
0060
0060
0070
0030
0030
0030
0038
0010
ENDCHAR

STARTCHAR bracketright
ENCODING 93
SWIDTH 600 0
DWIDTH 30 0
BBX 19 37 5 -6
BITMAP
007FC0
007F80
000180
000180
000180
000300
000300
000300
000300
000300
000600
000600
000600
000600
000600
000C00
000C00
000C00
000C00
001C00
001800
001800
001800
001800
003000
003000
003000
003000
003000
006000
006000
006000
006000
006000
00C000
3FC000
3FC000
ENDCHAR

STARTCHAR asciicircum
ENCODING 94
SWIDTH 600 0
DWIDTH 30 0
BBX 22 13 8 18
BITMAP
000400
000E00
001E00
003700
006300
00C380
0181C0
0300C0
0600E0
0C0060
1C0070
380030
200010
ENDCHAR

STARTCHAR underscore
ENCODING 95
SWIDTH 600 0
DWIDTH 30 0
BBX 34 3 -2 -6
BITMAP
3FFFFFFF00
7FFFFFFF80
3FFFFFFF00
ENDCHAR

STARTCHAR quoteleft
ENCODING 96
SWIDTH 600 0
DWIDTH 30 0
BBX 11 15 17 16
BITMAP
3F80
3F80
1F80
1F80
1F80
0F80
0F80
0F80
0780
0780
0780
0380
03C0
0380
0100
ENDCHAR

STARTCHAR a
ENCODING 97
SWIDTH 600 0
DWIDTH 30 0
BBX 26 23 3 -1
BITMAP
0007F000
007FFC00
00F81E00
00800700
00000300
00000300
00000300
00000300
00000600
003FF600
01FFFE00
03E01E00
0F000600
1C000C00
18000C00
38000C00
30000C00
30003C00
30007800
3801F800
1C0F9F80
0FFE1F80
03F80000
ENDCHAR

STARTCHAR b
ENCODING 98
SWIDTH 600 0
DWIDTH 30 0
BBX 32 32 0 -1
BITMAP
00FC0000
00FC0000
000C0000
00180000
00180000
00180000
00180000
00180000
00300000
00303F80
0030FFE0
0033C1F0
00370078
006C0038
0078001C
0070001C
0070000C
0060000C
00E0000C
00C0000C
00C0000C
00C0000C
01C00018
01C00018
01C00030
01C00070
01E000E0
037001C0
03780380
3F3E0F00
3F0FFC00
0003F000
ENDCHAR

STARTCHAR c
ENCODING 99
SWIDTH 600 0
DWIDTH 30 0
BBX 27 23 4 -1
BITMAP
000FF000
003FFCC0
00F01EC0
01C00780
03800380
07000380
0E000180
0C000100
18000000
18000000
18000000
30000000
30000000
30000000
30000000
30000000
38000000
18000700
1C000E00
0E003C00
0F81F000
03FFC000
00FE0000
ENDCHAR

STARTCHAR d
ENCODING 100
SWIDTH 600 0
DWIDTH 30 0
BBX 30 32 3 -1
BITMAP
000003F0
000003F0
00000030
00000030
00000070
00000060
00000060
00000060
00000060
000FE0C0
003FF8C0
00F03CC0
01C00EC0
038006C0
07000780
0E000380
0C000380
18000380
18000380
18000300
30000300
30000300
30000300
30000700
30000E00
38000E00
18001E00
1C003600
0E00EC00
0F83CFC0
03FF0FC0
00FC0000
ENDCHAR

STARTCHAR e
ENCODING 101
SWIDTH 600 0
DWIDTH 30 0
BBX 27 23 3 -1
BITMAP
000FE000
003FF800
00F03E00
01C00E00
03800700
06000380
0E000380
0C000180
18000180
18000180
3FFFFF80
3FFFFF80
30000000
30000000
30000000
30000000
38000000
18000000
1C000600
0E001E00
0780F800
03FFE000
00FF0000
ENDCHAR

STARTCHAR f
ENCODING 102
SWIDTH 600 0
DWIDTH 30 0
BBX 31 31 4 0
BITMAP
00001FF0
00007FF8
0001E038
00038000
00030000
00060000
00060000
00060000
000C0000
000C0000
03FFFF80
03FFFF80
000C0000
00180000
00180000
00180000
00180000
00380000
00300000
00300000
00300000
00300000
00700000
00600000
00600000
00600000
00600000
00C00000
00C00000
3FFFF000
3FFFF000
ENDCHAR

STARTCHAR g
ENCODING 103
SWIDTH 600 0
DWIDTH 30 0
BBX 31 32 3 -10
BITMAP
000FC000
007FF1F8
00F079F8
01C01D80
03000F00
06000F00
0C000700
1C000700
18000700
18000600
30000600
30000600
30000600
30000E00
30000C00
38001C00
18003C00
1C007C00
0E00EC00
0F039800
07FF1800
00F81800
00001800
00003000
00003000
00003000
00006000
0000E000
0001C000
00078000
0FFE0000
0FF80000
ENDCHAR

STARTCHAR h
ENCODING 104
SWIDTH 600 0
DWIDTH 30 0
BBX 29 31 1 0
BITMAP
00FC0000
00F80000
00180000
00180000
00180000
00180000
00300000
00300000
00300000
0030FE00
0033FF00
00670380
006C01C0
007800C0
007000C0
006000C0
00C000C0
00C000C0
00C00180
00C00180
01C00180
01800180
01800180
01800300
01800300
03000300
03000300
03000300
03000600
3FE03FE0
3FE03FE0
ENDCHAR

STARTCHAR i
ENCODING 105
SWIDTH 600 0
DWIDTH 30 0
BBX 24 31 3 0
BITMAP
000070
0000E0
0000E0
0000E0
0000E0
000000
000000
000000
000000
000000
00FFC0
00FF80
000180
000180
000180
000300
000300
000300
000300
000300
000600
000600
000600
000600
000E00
000C00
000C00
000C00
000C00
3FFFFE
3FFFFC
ENDCHAR

STARTCHAR j
ENCODING 106
SWIDTH 600 0
DWIDTH 30 0
BBX 25 40 1 -9
BITMAP
00000700
00000E00
00000E00
00000E00
00000E00
00000000
00000000
00000000
00000000
00000000
00FFFF00
00FFFE00
00000600
00000600
00000600
00000C00
00000C00
00000C00
00000C00
00000C00
00001800
00001800
00001800
00001800
00003800
00003000
00003000
00003000
00003000
00006000
00006000
00006000
00006000
0000C000
0000C000
0001C000
00038000
000F0000
3FFE0000
3FF00000
ENDCHAR

STARTCHAR k
ENCODING 107
SWIDTH 600 0
DWIDTH 30 0
BBX 29 31 2 0
BITMAP
00FC0000
01F80000
00180000
00180000
00180000
00180000
00300000
00300000
00300000
00300000
00303FE0
00603FE0
00601C00
00603800
00607000
00E1C000
00C38000
00CE0000
00DC0000
00FC0000
01EE0000
01C70000
01838000
01818000
0181C000
0300E000
03007000
03003800
03003800
3F00FF80
7E00FF80
ENDCHAR

STARTCHAR l
ENCODING 108
SWIDTH 600 0
DWIDTH 30 0
BBX 24 31 3 0
BITMAP
003FF0
003FE0
000060
000060
000060
0000C0
0000C0
0000C0
0000C0
0000C0
000180
000180
000180
000180
000180
000300
000300
000300
000300
000700
000600
000600
000600
000600
000E00
000C00
000C00
000C00
000C00
3FFFFE
3FFFFC
ENDCHAR

STARTCHAR m
ENCODING 109
SWIDTH 600 0
DWIDTH 30 0
BBX 33 22 -1 0
BITMAP
0003E07800
03EFF1FC00
03FC738E00
00783E0600
00F01C0600
00E0180600
00C0300600
00C0300600
00C0300C00
0180300C00
0180300C00
0180600C00
0180601800
0180601800
0300601800
0300601800
0300C01800
0300C03000
0300C03000
0600C03000
3FC1F03E00
3FC1F03E00
ENDCHAR

STARTCHAR n
ENCODING 110
SWIDTH 600 0
DWIDTH 30 0
BBX 28 22 1 0
BITMAP
0000FE00
01F3FF00
01E70380
006C01C0
007800C0
007000C0
006000C0
00C000C0
00C000C0
00C00180
00C00180
00C00180
01800180
01800180
01800300
01800300
03000300
03000300
03000700
03000600
3FE03FC0
3FE03FC0
ENDCHAR

STARTCHAR o
ENCODING 111
SWIDTH 600 0
DWIDTH 30 0
BBX 27 23 4 -1
BITMAP
000FE000
003FF800
00F83C00
01C00E00
03800700
07000300
0E000380
0C000180
18000180
18000180
18000180
30000180
30000180
30000300
30000300
30000600
38000E00
18001C00
1C003800
0E007000
0783E000
03FF8000
00FE0000
ENDCHAR

STARTCHAR p
ENCODING 112
SWIDTH 600 0
DWIDTH 30 0
BBX 34 32 -2 -10
BITMAP
00000FC000
00FC7FF800
00FCF07C00
000FC01E00
001F000E00
001E000700
001C000700
0018000300
0018000300
0030000300
0030000300
0030000300
0030000600
0070000600
0070000E00
0070000C00
0078001800
007C003000
00DE00E000
00CF83C000
00C7FF8000
00C0FC0000
00C0000000
0180000000
0180000000
0180000000
0180000000
0180000000
0300000000
0300000000
3FFC000000
3FFC000000
ENDCHAR

STARTCHAR q
ENCODING 113
SWIDTH 600 0
DWIDTH 30 0
BBX 32 32 3 -10
BITMAP
000FE000
003FF8FC
00F03CFC
01C00EC0
03000780
06000780
0C000380
0C000380
18000380
18000300
30000300
30000300
30000300
30000700
30000600
38000E00
18001E00
1C003E00
0E00F600
0F83CC00
03FF8C00
00FC0C00
00000C00
00001800
00001800
00001800
00001800
00001800
00003000
00003000
000FFF00
000FFF00
ENDCHAR

STARTCHAR r
ENCODING 114
SWIDTH 600 0
DWIDTH 30 0
BBX 30 22 3 0
BITMAP
000007C0
01FC1FE0
01FC7870
0008E030
0019C000
001F0000
001E0000
001C0000
00300000
00300000
00300000
00300000
00300000
00600000
00600000
00600000
00600000
00E00000
00C00000
00C00000
3FFFF000
3FFFF000
ENDCHAR

STARTCHAR s
ENCODING 115
SWIDTH 600 0
DWIDTH 30 0
BBX 26 23 3 -1
BITMAP
000FF000
003FFD80
00F01F80
01C00780
01800300
03000300
03000300
03800000
03C00000
01FE0000
007FF000
0003F800
00001C00
00000E00
00000600
18000600
18000600
18000E00
38001C00
3C003800
3F00F000
37FFC000
01FE0000
ENDCHAR

STARTCHAR t
ENCODING 116
SWIDTH 600 0
DWIDTH 30 0
BBX 22 29 7 -1
BITMAP
00C000
00C000
018000
018000
018000
018000
018000
7FFFF8
7FFFF8
030000
030000
030000
060000
060000
060000
060000
0C0000
0C0000
0C0000
0C0000
0C0000
180000
180000
180000
180000
1C0070
0E03F0
07FF80
03FC00
ENDCHAR

STARTCHAR u
ENCODING 117
SWIDTH 600 0
DWIDTH 30 0
BBX 25 22 5 -1
BITMAP
7E00FE00
7E00FE00
06000600
06000C00
0E000C00
0C000C00
0C000C00
0C000C00
0C001800
18001800
18001800
18001800
18003000
18003000
30003000
30003000
30007000
3001E000
3807E000
1C1E7C00
1FFC7C00
07E00000
ENDCHAR

STARTCHAR v
ENCODING 118
SWIDTH 600 0
DWIDTH 30 0
BBX 30 21 4 0
BITMAP
3FF01FF8
3FF01FF8
06000180
07000300
03000700
03000600
03000C00
03001C00
03801800
01803000
01807000
01806000
01C0C000
00C0C000
00C18000
00C30000
00E30000
00660000
006C0000
007C0000
00780000
ENDCHAR

STARTCHAR w
ENCODING 119
SWIDTH 600 0
DWIDTH 30 0
BBX 31 21 4 0
BITMAP
3FC007F8
3FC007F8
0C0000C0
0C0000C0
0C0000C0
0C070180
0C070180
0C0F0300
0C0F0300
0C1B0600
0C3B8600
0C318C00
0C718C00
0C618C00
0CC19800
0CC19800
0D81B000
0D81B000
0F01E000
0F00E000
0E00E000
ENDCHAR

STARTCHAR x
ENCODING 120
SWIDTH 600 0
DWIDTH 30 0
BBX 32 21 1 0
BITMAP
01FE03FC
01FE03FC
00700070
003000C0
00380380
001C0700
000E0E00
00073800
0003F000
0001E000
0003E000
0007E000
000E7000
001C3800
00701C00
00E00E00
01C00700
03800300
0E000380
3FE03FE0
3FE03FE0
ENDCHAR

STARTCHAR y
ENCODING 121
SWIDTH 600 0
DWIDTH 30 0
BBX 35 30 -1 -9
BITMAP
00FF007F80
00FF007F80
0030000E00
0030000C00
0038001800
0018003000
0018007000
001C006000
000C00C000
000C01C000
000C018000
000E030000
0006060000
00060E0000
00070C0000
0003180000
0003300000
0003300000
0003E00000
0001C00000
0001C00000
0001800000
0003000000
0006000000
000E000000
000C000000
0018000000
0038000000
3FFF000000
3FFF000000
ENDCHAR

STARTCHAR z
ENCODING 122
SWIDTH 600 0
DWIDTH 30 0
BBX 26 21 4 0
BITMAP
01FFFF00
03FFFF00
03000600
03000C00
03003800
03007000
0000E000
0001C000
00038000
00070000
000E0000
00180000
00300000
00600000
01C00000
03800C00
07000C00
0E001800
1C001800
3FFFF800
3FFFF800
ENDCHAR

STARTCHAR braceleft
ENCODING 123
SWIDTH 600 0
DWIDTH 30 0
BBX 17 37 11 -6
BITMAP
000F00
001E00
003800
007000
006000
006000
00C000
00C000
00C000
00C000
00C000
018000
018000
018000
018000
030000
070000
1E0000
3C0000
3E0000
060000
060000
060000
060000
060000
0C0000
0C0000
0C0000
0C0000
0C0000
180000
180000
180000
180000
1C0000
0F0000
070000
ENDCHAR

STARTCHAR bar
ENCODING 124
SWIDTH 600 0
DWIDTH 30 0
BBX 5 37 13 -6
BITMAP
60
60
60
60
60
60
60
60
60
60
60
60
60
60
60
60
60
60
60
60
60
60
60
60
60
60
60
60
60
60
60
60
60
60
60
60
60
ENDCHAR

STARTCHAR braceright
ENCODING 125
SWIDTH 600 0
DWIDTH 30 0
BBX 17 37 7 -6
BITMAP
007000
007800
001C00
000C00
000C00
000C00
000C00
001800
001800
001800
001800
001800
003000
003000
003000
003000
003800
001E00
001E00
003E00
007000
006000
00C000
00C000
00C000
00C000
00C000
018000
018000
018000
018000
030000
030000
070000
0E0000
3C0000
780000
ENDCHAR

STARTCHAR asciitilde
ENCODING 126
SWIDTH 600 0
DWIDTH 30 0
BBX 24 7 6 11
BITMAP
03C000
07F000
1C780E
381C1C
701E38
000FF0
0003C0
ENDCHAR

STARTCHAR space
ENCODING 160
SWIDTH 600 0
DWIDTH 34 0
BBX 0 0 0 0
BITMAP
ENDCHAR

STARTCHAR Aogonek
ENCODING 161
SWIDTH 600 0
DWIDTH 30 0
BBX 33 36 0 -7
BITMAP
000FFF0000
000FFF0000
00001B0000
0000330000
0000330000
0000638000
0000C18000
0000C18000
0001818000
0001818000
0003018000
000301C000
000600C000
000C00C000
000C00C000
001800C000
001800C000
003FFFE000
003FFFE000
0060006000
00C0006000
00C0006000
0180006000
0180006000
0300003000
0300003000
0600003000
3FF007FE00
3FF00FFC00
0000003000
0000006000
000000C000
000000C000
000000C300
0000007E00
0000003C00
ENDCHAR

STARTCHAR breve
ENCODING 162
SWIDTH 600 0
DWIDTH 30 0
BBX 18 7 12 25
BITMAP
100180
300180
300300
380700
1C1E00
1FF800
07E000
ENDCHAR

STARTCHAR Lslash
ENCODING 163
SWIDTH 600 0
DWIDTH 30 0
BBX 29 29 2 0
BITMAP
01FFF800
01FFF800
00060000
00060000
000E0000
000C0000
000C0000
000C0000
000C0000
00181000
00187000
0019E000
001F8000
001E0000
00780000
00F00000
03F00000
0F300020
3C300060
30600060
00600060
00600060
006000E0
006000C0
00C000C0
00C000C0
00C000C0
3FFFFF80
7FFFFF80
ENDCHAR

STARTCHAR currency
ENCODING 164
SWIDTH 600 0
DWIDTH 30 0
BBX 27 21 5 4
BITMAP
02000080
03000180
038FC380
01BFFE00
01F87C00
00E01800
01801C00
03800C00
03000C00
06000C00
06000C00
06000C00
06001800
06003800
07003000
0380E000
07C3F000
0FFFF000
187E3800
30001C00
20000800
ENDCHAR

STARTCHAR Lcaron
ENCODING 165
SWIDTH 600 0
DWIDTH 30 0
BBX 31 29 1 0
BITMAP
00FFFC38
00FFFC7C
000600FC
000600F8
00060038
00060030
00060070
000C00E0
000C01C0
000C0100
000C0000
000C0000
00180000
00180000
00180000
00180000
00180000
00300010
00300030
00300030
00300060
00700060
00600060
00600060
00600060
006000C0
00C000C0
3FFFFFC0
3FFFFFC0
ENDCHAR

STARTCHAR Sacute
ENCODING 166
SWIDTH 600 0
DWIDTH 30 0
BBX 29 40 3 0
BITMAP
00000040
000001C0
00000380
00000F00
00001C00
00003800
00006000
00004000
00000000
00000000
0003F800
000FFE60
001C07E0
003003E0
006001C0
00C000C0
00C000C0
018000C0
01800080
01800000
01800000
01C00000
00F00000
007E0000
001FF000
0001FC00
00001E00
00000700
00000300
00000300
00000300
18000300
18000300
18000600
18000E00
3C001C00
3E003800
3780F000
33FFC000
00FE0000
ENDCHAR

STARTCHAR section
ENCODING 167
SWIDTH 600 0
DWIDTH 30 0
BBX 29 34 4 -3
BITMAP
0001FFE0
0007FFE0
000C0060
00180040
00300040
002000C0
00600000
00600000
00200000
03F00000
07180000
0C0E0000
18070000
1801C000
1800E000
0C003800
06001C00
07000600
01C00300
00E00180
00780180
001C0180
00070100
00038300
0001FC00
0000F000
00006000
00006000
30006000
30004000
2000C000
20018000
60070000
7FFC0000
ENDCHAR

STARTCHAR dieresis
ENCODING 168
SWIDTH 600 0
DWIDTH 30 0
BBX 18 4 12 26
BITMAP
380700
780F00
780F00
700E00
ENDCHAR

STARTCHAR Scaron
ENCODING 169
SWIDTH 600 0
DWIDTH 30 0
BBX 29 39 3 0
BITMAP
00020030
00038070
0003C1C0
0001E380
00007E00
00003C00
00001000
00000000
00000000
0003F800
000FFE60
001C07E0
003003E0
006001C0
00C000C0
00C000C0
018000C0
01800080
01800000
01800000
01C00000
00F00000
007E0000
001FF000
0001FC00
00001E00
00000700
00000300
00000300
00000300
18000300
18000300
18000600
18000E00
3C001C00
3E003800
3780F000
33FFC000
00FE0000
ENDCHAR

STARTCHAR Scommaaccent
ENCODING 170
SWIDTH 600 0
DWIDTH 30 0
BBX 29 42 3 -12
BITMAP
0003F800
000FFE60
001C07E0
003003E0
006001C0
00C000C0
00C000C0
018000C0
01800080
01800000
01800000
01C00000
00F00000
007E0000
001FF000
0001FC00
00001E00
00000700
00000300
00000300
00000300
18000300
18000300
18000600
18000E00
3C001C00
3E003800
3780F000
33FFC000
00FF0000
00000000
00000000
00380000
007C0000
00FC0000
00FC0000
00780000
00300000
00700000
00E00000
01C00000
01800000
ENDCHAR

STARTCHAR Tcaron
ENCODING 171
SWIDTH 600 0
DWIDTH 30 0
BBX 28 39 6 0
BITMAP
00200100
00300700
003C0E00
001E3C00
000F7000
0007C000
00038000
00000000
00000000
00000000
0FFFFFC0
1FFFFFC0
180300C0
180600C0
180600C0
30060180
30060180
30060180
300C0180
300C0180
200C0100
000C0000
00180000
00180000
00180000
00180000
00180000
00300000
00300000
00300000
00300000
00300000
00600000
00600000
00600000
00600000
00600000
3FFF8000
3FFF8000
ENDCHAR

STARTCHAR Zacute
ENCODING 172
SWIDTH 600 0
DWIDTH 30 0
BBX 27 39 4 0
BITMAP
00000180
00000380
00000E00
00001C00
00007800
0000E000
0000C000
00000000
00000000
00000000
00FFFFC0
00FFFFC0
00C00180
00C00380
01800700
01800E00
01800C00
01801800
03003000
00006000
0000C000
0001C000
00038000
00070000
000E0000
001C0000
00180000
00300000
00600200
00C00600
01800600
03000600
07000C00
0E000C00
1C000C00
38000C00
30000800
3FFFF800
7FFFF800
ENDCHAR

STARTCHAR hyphen
ENCODING 173
SWIDTH 600 0
DWIDTH 30 0
BBX 24 3 6 13
BITMAP
3FFFFE
3FFFFE
7FFFFC
ENDCHAR

STARTCHAR Zcaron
ENCODING 174
SWIDTH 600 0
DWIDTH 30 0
BBX 29 39 4 0
BITMAP
00040020
000600E0
000781C0
0003C780
0001EE00
0000FC00
00003000
00000000
00000000
00000000
00FFFFC0
00FFFFC0
00C00180
00C00380
01800700
01800E00
01800C00
01801800
03003000
00006000
0000C000
0001C000
00038000
00070000
000E0000
001C0000
00180000
00300000
00600200
00C00600
01800600
03000600
07000C00
0E000C00
1C000C00
38000C00
30000800
3FFFF800
7FFFF800
ENDCHAR

STARTCHAR Zdotaccent
ENCODING 175
SWIDTH 600 0
DWIDTH 30 0
BBX 28 37 4 0
BITMAP
00001800
00007C00
00007C00
00007C00
00003000
00000000
00000000
00000000
00FFFFC0
00FFFFC0
00C001C0
00C00380
00C00300
01800600
01800C00
01801800
01803000
01007000
0000E000
0001C000
00038000
00070000
00060000
000C0000
00180000
00300000
00600200
00C00600
01C00600
03800600
07000600
0E000C00
1C000C00
18000C00
30000C00
3FFFF800
3FFFF800
ENDCHAR

STARTCHAR degree
ENCODING 176
SWIDTH 600 0
DWIDTH 30 0
BBX 16 14 13 23
BITMAP
03C0
0FF0
1FF8
3C3C
381C
700E
700E
700E
700E
381C
3C3C
1FF8
0FF0
03C0
ENDCHAR

STARTCHAR aogonek
ENCODING 177
SWIDTH 600 0
DWIDTH 30 0
BBX 26 29 2 -7
BITMAP
0007F000
007FFC00
00F80E00
00800700
00000300
00000300
00000300
00000300
00000600
003FF600
01FFFE00
03C00E00
0F000600
1C000C00
18000C00
30000C00
30000C00
30003C00
30007800
3801F800
1C0F9F80
0FFE1F80
03F01800
00003000
00006000
00006000
00006180
00003F80
00001E00
ENDCHAR

STARTCHAR ogonek
ENCODING 178
SWIDTH 600 0
DWIDTH 30 0
BBX 10 8 12 -7
BITMAP
0E00
1800
3000
2000
6000
6100
3F00
1C00
ENDCHAR

STARTCHAR lslash
ENCODING 179
SWIDTH 600 0
DWIDTH 30 0
BBX 25 31 3 0
BITMAP
003FF000
003FE000
00006000
00006000
00006000
0000C000
0000C000
0000C000
0000C000
0000C000
00018000
00018600
00019E00
0001F800
0001E000
00078000
001F0000
007F0000
00F30000
01C70000
00060000
00060000
00060000
00060000
000C0000
000C0000
000C0000
000C0000
000C0000
3FFFFE00
3FFFFC00
ENDCHAR

STARTCHAR acute
ENCODING 180
SWIDTH 600 0
DWIDTH 30 0
BBX 12 7 16 25
BITMAP
00E0
01C0
0380
0E00
1C00
3800
6000
ENDCHAR

STARTCHAR lcaron
ENCODING 181
SWIDTH 600 0
DWIDTH 30 0
BBX 30 31 3 0
BITMAP
001FF0F0
003FE1F0
000061F0
000061F0
00006060
000060C0
0000C180
0000C300
0000C000
0000C000
0000C000
00018000
00018000
00018000
00018000
00038000
00030000
00030000
00030000
00030000
00060000
00060000
00060000
00060000
00060000
000C0000
000C0000
000C0000
000C0000
3FFFFE00
3FFFFE00
ENDCHAR

STARTCHAR sacute
ENCODING 182
SWIDTH 600 0
DWIDTH 30 0
BBX 27 34 3 -1
BITMAP
00000080
00000180
00000700
00000E00
00003C00
00007000
0000E000
00008000
00000000
00000000
00000000
000FF000
003FFD80
00F01F80
01C00780
01800300
03000300
03000300
03800000
03C00000
01FE0000
007FF000
0003F800
00001C00
00000E00
00000600
18000600
18000600
18000E00
38001C00
3C003800
3F00F000
37FFC000
01FE0000
ENDCHAR

STARTCHAR caron
ENCODING 183
SWIDTH 600 0
DWIDTH 30 0
BBX 17 7 13 25
BITMAP
200200
700600
381E00
1C3800
0EE000
07C000
030000
ENDCHAR

STARTCHAR commaaccent
ENCODING 184
SWIDTH 600 0
DWIDTH 30 0
BBX 9 10 11 -13
BITMAP
0E00
1F00
3F00
3E00
1E00
0C00
1C00
3800
7000
6000
ENDCHAR

STARTCHAR scaron
ENCODING 185
SWIDTH 600 0
DWIDTH 30 0
BBX 29 33 3 -1
BITMAP
00040060
000F00E0
000783C0
0003C700
0001FE00
0000F800
00003000
00000000
00000000
00000000
000FF000
003FFD80
00F01F80
01C00780
01800300
03000300
03000300
03800000
03C00000
01FE0000
007FF000
0003F800
00001C00
00000E00
00000600
18000600
18000600
18000E00
38001C00
3C003800
3F00F000
37FFC000
01FE0000
ENDCHAR

STARTCHAR scommaaccent
ENCODING 186
SWIDTH 600 0
DWIDTH 30 0
BBX 26 35 3 -13
BITMAP
000FF000
003FFD80
00F01F80
01C00780
01800300
03000300
03000300
03800000
03C00000
01FE0000
007FF000
0003F800
00001C00
00000E00
00000600
18000600
18000600
18000E00
38001C00
3C003800
3F00F000
37FFC000
01FF0000
00000000
00000000
00380000
007C0000
00FC0000
00FC0000
00780000
00300000
00700000
00E00000
01C00000
01800000
ENDCHAR

STARTCHAR tcaron
ENCODING 187
SWIDTH 600 0
DWIDTH 30 0
BBX 22 32 7 -1
BITMAP
0000E0
0001F0
00C1F0
00C0E0
00C060
0180C0
018180
018300
018000
018000
7FFFF8
7FFFF0
030000
030000
060000
060000
060000
060000
060000
0C0000
0C0000
0C0000
0C0000
0C0000
180000
180000
180000
180000
1C0070
0E03E0
07FF80
03FC00
ENDCHAR

STARTCHAR zacute
ENCODING 188
SWIDTH 600 0
DWIDTH 30 0
BBX 26 32 4 0
BITMAP
00000180
00000700
00000E00
00001C00
00007000
0000E000
0001C000
00000000
00000000
00000000
00000000
01FFFF00
03FFFF00
03000600
03000C00
03003800
03007000
0000E000
0001C000
00038000
00070000
000E0000
00180000
00300000
00600000
01C00000
03800C00
07000C00
0E001800
1C001800
3FFFF800
3FFFF800
ENDCHAR

STARTCHAR hungarumlaut
ENCODING 189
SWIDTH 600 0
DWIDTH 30 0
BBX 19 7 11 25
BITMAP
00C1C0
01C380
038700
060E00
1C1C00
383000
306000
ENDCHAR

STARTCHAR zcaron
ENCODING 190
SWIDTH 600 0
DWIDTH 30 0
BBX 28 32 4 0
BITMAP
00040000
000E00E0
000703C0
00038700
0001DE00
0000F800
00007000
00000000
00000000
00000000
00000000
01FFFF00
03FFFF00
03000600
03000C00
03003800
03007000
0000E000
0001C000
00038000
00070000
000E0000
00180000
00300000
00600000
01C00000
03800C00
07000C00
0E001800
1C001800
3FFFF800
3FFFF800
ENDCHAR

STARTCHAR zdotaccent
ENCODING 191
SWIDTH 600 0
DWIDTH 30 0
BBX 26 30 4 0
BITMAP
00003000
0000F800
0000F800
0000F800
00006000
00000000
00000000
00000000
00000000
03FFFF00
03FFFF00
03000E00
03001C00
06003800
06007000
0000E000
00018000
00030000
00060000
001C0000
00380000
00700000
00E00000
01C00000
03801800
06001800
0C001800
18001800
3FFFF000
3FFFF000
ENDCHAR

STARTCHAR Racute
ENCODING 192
SWIDTH 600 0
DWIDTH 30 0
BBX 31 39 0 0
BITMAP
00000060
000000E0
00000380
00000700
00000E00
00003800
00003000
00000000
00000000
00000000
00FFFF80
00FFFFC0
001801F0
00180070
00180038
00180018
00380018
00300018
00300018
00300030
00300070
007000E0
006001C0
00600F80
007FFE00
007FF000
00C03800
00C01C00
00C00E00
00C00700
00C00300
01800380
01800180
01800180
018001C0
018000C0
030000E0
3FF80078
3FF80078
ENDCHAR

STARTCHAR Aacute
ENCODING 193
SWIDTH 600 0
DWIDTH 30 0
BBX 32 39 0 0
BITMAP
00000030
000000E0
000001C0
00000380
00000E00
00001C00
00001800
00000000
00000000
00000000
000FFF00
000FFF00
00001B00
00003300
00003380
00006180
00006180
0000C180
0001C180
00018180
000301C0
000300C0
000600C0
000600C0
000C00C0
001800C0
001800E0
003FFFE0
003FFFE0
00600060
00600060
00C00060
01800070
01800030
03000030
03000030
06000030
3FF007FE
3FF007FE
ENDCHAR

STARTCHAR Acircumflex
ENCODING 194
SWIDTH 600 0
DWIDTH 30 0
BBX 32 39 0 0
BITMAP
00000200
00000780
00001FC0
000039E0
0000F0F0
0001C038
00038018
00000000
00000000
00000000
000FFF00
000FFF00
00001B00
00003300
00003380
00006180
00006180
0000C180
0001C180
00018180
000301C0
000300C0
000600C0
000600C0
000C00C0
001800C0
001800E0
003FFFE0
003FFFE0
00600060
00600060
00C00060
01800070
01800030
03000030
03000030
06000030
3FF007FE
3FF007FE
ENDCHAR

STARTCHAR Abreve
ENCODING 195
SWIDTH 600 0
DWIDTH 30 0
BBX 32 39 0 0
BITMAP
0000800C
0001800C
00018018
0001C038
0000E0F0
0000FFE0
00003F80
00000000
00000000
00000000
000FFF00
000FFF00
00001B00
00003300
00007300
00006380
0000C180
0000C180
00018180
00018180
00030180
000701C0
000600C0
000C00C0
000C00C0
001800C0
001800C0
003FFFE0
007FFFE0
00600060
00C00060
00C00060
01800060
01800060
03000030
07000030
06000030
3FF007FE
3FF00FFC
ENDCHAR

STARTCHAR Adieresis
ENCODING 196
SWIDTH 600 0
DWIDTH 30 0
BBX 32 37 0 0
BITMAP
0000E038
0001E078
0001E078
0001C070
00000000
00000000
00000000
00000000
000FFF00
000FFF00
00001B00
00003300
00003300
00006180
00006180
0000C180
0000C180
00018180
00030180
000301C0
000600C0
000600C0
000C00C0
000C00C0
001800C0
003FFFC0
003FFFE0
00600060
00600060
00C00060
00C00060
01800060
03800070
03000030
06000030
3FF007FE
3FF007FC
ENDCHAR

STARTCHAR Lacute
ENCODING 197
SWIDTH 600 0
DWIDTH 30 0
BBX 29 39 2 0
BITMAP
000000C0
00000380
00000700
00000E00
00003800
00007000
00006000
00000000
00000000
00000000
01FFF800
01FFF800
00060000
00060000
00060000
000C0000
000C0000
000C0000
000C0000
001C0000
00180000
00180000
00180000
00180000
00300000
00300000
00300000
00300020
00300060
00600060
00600060
00600060
006000E0
006000C0
00C000C0
00C000C0
00C000C0
3FFFFF80
7FFFFF80
ENDCHAR

STARTCHAR Cacute
ENCODING 198
SWIDTH 600 0
DWIDTH 30 0
BBX 30 40 4 0
BITMAP
00000020
000000E0
000001C0
00000780
00000E00
00001C00
00003000
00002000
00000000
00000000
0003FC00
000FFF30
003C07B0
007001F0
00E000F0
01800070
03000060
07000060
06000060
0C000000
0C000000
1C000000
18000000
18000000
18000000
38000000
30000000
30000000
30000000
30000000
30000000
30000000
38000000
18000300
1C000700
0E000E00
07001C00
03C0F000
01FFC000
007F0000
ENDCHAR

STARTCHAR Ccedilla
ENCODING 199
SWIDTH 600 0
DWIDTH 30 0
BBX 30 38 4 -8
BITMAP
0003F800
000FFE30
003C0FB0
007003F0
00C001E0
018000E0
03000060
06000060
06000040
0C000000
0C000000
18000000
18000000
18000000
18000000
30000000
30000000
30000000
30000000
30000000
30000000
30000000
38000000
18000300
1C000700
0E000E00
07003C00
03C1F000
01FFC000
007F0000
00300000
00300000
00380000
001C0000
000C0000
03080000
03F80000
00E00000
ENDCHAR

STARTCHAR Ccaron
ENCODING 200
SWIDTH 600 0
DWIDTH 30 0
BBX 30 39 4 0
BITMAP
00010018
00038038
0001E0E0
0000F1C0
00007F00
00001E00
00000800
00000000
00000000
0003FC00
000FFF30
003C07B0
007001F0
00E000F0
01800070
03000060
07000060
06000060
0C000000
0C000000
1C000000
18000000
18000000
18000000
38000000
30000000
30000000
30000000
30000000
30000000
30000000
38000000
18000300
1C000700
0E000E00
07001C00
03C0F000
01FFC000
007F0000
ENDCHAR

STARTCHAR Eacute
ENCODING 201
SWIDTH 600 0
DWIDTH 30 0
BBX 32 39 1 0
BITMAP
00000060
000000E0
00000380
00000700
00000E00
00003800
00003000
00000000
00000000
00000000
01FFFFFC
01FFFFFC
0018000C
00180018
00300018
00300018
00300018
00300018
00300010
00601800
00601800
00603000
00603000
007FF000
00FFF000
00C03000
00C06000
00C06000
01C06000
01800020
01800060
01800060
01800060
038000C0
030000C0
030000C0
030000C0
3FFFFF80
3FFFFF80
ENDCHAR

STARTCHAR Eogonek
ENCODING 202
SWIDTH 600 0
DWIDTH 30 0
BBX 32 36 0 -7
BITMAP
00FFFFFE
00FFFFFC
0018000C
0018000C
0018000C
0018000C
00180018
00300018
00300000
00300800
00301800
00301800
00601800
007FF800
007FF000
00603000
00E03000
00C03000
00C02000
00C00020
00C00070
01C00060
01800060
01800060
01800060
018000E0
030000C0
3FFFFFC0
3FFFFFC0
00000C00
00001800
00003000
00003000
000030C0
00001F80
00000F00
ENDCHAR

STARTCHAR Edieresis
ENCODING 203
SWIDTH 600 0
DWIDTH 30 0
BBX 31 37 2 0
BITMAP
0001C070
0003C0F0
0003C0F0
000380E0
00000000
00000000
00000000
00000000
01FFFFF8
01FFFFF8
00180018
00300018
00300038
00300030
00300030
00300030
00600020
00601000
00603000
00603000
00E03000
00FFF000
00FFE000
00C06000
00C06000
01C06000
01804000
01800040
018000C0
018000C0
030000C0
030000C0
03000180
03000180
03000180
7FFFFF80
7FFFFF80
ENDCHAR

STARTCHAR Ecaron
ENCODING 204
SWIDTH 600 0
DWIDTH 30 0
BBX 32 39 1 0
BITMAP
00010008
0001C038
0001E070
0000F1E0
00003B80
00001F00
00000C00
00000000
00000000
00000000
01FFFFFC
01FFFFFC
0018000C
00180018
00300018
00300018
00300018
00300018
00300010
00601800
00601800
00603000
00603000
007FF000
00FFF000
00C03000
00C06000
00C06000
01C06000
01800020
01800060
01800060
01800060
038000C0
030000C0
030000C0
030000C0
3FFFFF80
3FFFFF80
ENDCHAR

STARTCHAR Iacute
ENCODING 205
SWIDTH 600 0
DWIDTH 30 0
BBX 28 39 4 0
BITMAP
00000700
00000E00
00001C00
00007000
0000E000
0001C000
00030000
00000000
00000000
00000000
00FFFFC0
00FFFFC0
0000C000
00018000
00018000
00018000
00018000
00018000
00030000
00030000
00030000
00030000
00070000
00060000
00060000
00060000
00060000
000C0000
000C0000
000C0000
000C0000
000C0000
00180000
00180000
00180000
00180000
00180000
3FFFF800
3FFFF000
ENDCHAR

STARTCHAR Icircumflex
ENCODING 206
SWIDTH 600 0
DWIDTH 30 0
BBX 28 39 4 0
BITMAP
00002000
0000F000
0001F800
00079C00
000E0F00
003C0700
00300300
00000000
00000000
00000000
00FFFFC0
00FFFFC0
0000C000
00018000
00018000
00018000
00018000
00018000
00030000
00030000
00030000
00030000
00070000
00060000
00060000
00060000
00060000
000C0000
000C0000
000C0000
000C0000
000C0000
00180000
00180000
00180000
00180000
00180000
3FFFF800
3FFFF000
ENDCHAR

STARTCHAR Dcaron
ENCODING 207
SWIDTH 600 0
DWIDTH 30 0
BBX 31 39 2 0
BITMAP
00010008
00038038
0001C070
0000E1C0
00007F80
00003E00
00001C00
00000000
00000000
00000000
01FFFE00
01FFFF80
003003C0
003000E0
00300070
00600030
00600038
00600018
00600018
00600018
00C00018
00C00018
00C00018
00C00018
00C00030
01800030
01800030
01800030
01800060
03800060
030000C0
030000C0
03000180
03000300
06000600
06001C00
06007800
3FFFF000
3FFF8000
ENDCHAR

STARTCHAR Dcroat
ENCODING 208
SWIDTH 600 0
DWIDTH 30 0
BBX 31 29 1 0
BITMAP
01FFFE00
01FFFF80
003003C0
003000E0
00300070
00600030
00600038
00600038
00600018
00600018
00C00018
00C00018
00C00018
1FFFE018
1FFFC030
01800030
01800030
01800030
01800060
03800060
030000C0
030000C0
03000180
03000300
06000600
06001C00
06007800
3FFFE000
3FFF8000
ENDCHAR

STARTCHAR Nacute
ENCODING 209
SWIDTH 600 0
DWIDTH 30 0
BBX 35 39 1 0
BITMAP
0000001800
0000007000
000000E000
000003C000
0000070000
00000E0000
0000080000
0000000000
0000000000
0000000000
03F801FF80
03FC01FF80
003C000C00
003C001800
006E001800
0066001800
0066001800
0067001800
0063003000
00C3803000
00C1803000
00C1803000
00C1C07000
00C0C06000
0180C06000
0180E06000
0180606000
018060C000
038030C000
030030C000
030038C000
030018C000
0300198000
06001D8000
06000D8000
06000D8000
06000F8000
3FF0070000
3FE0070000
ENDCHAR

STARTCHAR Ncaron
ENCODING 210
SWIDTH 600 0
DWIDTH 30 0
BBX 35 39 1 0
BITMAP
0000400000
0000E00E00
0000703C00
0000387000
00001DE000
00000F8000
0000070000
0000000000
0000000000
0000000000
03F801FF80
03FC01FF80
003C000C00
003C001800
006E001800
0066001800
0066001800
0067001800
0063003000
00C3803000
00C1803000
00C1803000
00C1C07000
00C0C06000
0180C06000
0180E06000
0180606000
018060C000
038030C000
030030C000
030038C000
030018C000
0300198000
06001D8000
06000D8000
06000D8000
06000F8000
3FF0070000
3FE0070000
ENDCHAR

STARTCHAR Oacute
ENCODING 211
SWIDTH 600 0
DWIDTH 30 0
BBX 30 40 3 0
BITMAP
00000060
000000E0
000001C0
00000700
00000E00
00003C00
00003000
00002000
00000000
00000000
0001FC00
000FFF00
001E0780
007803C0
00E001C0
01C000E0
03800060
03000070
06000030
0E000030
0C000030
0C000030
18000030
18000030
18000030
30000030
30000060
30000060
30000060
300000C0
300001C0
38000180
38000300
18000700
1C000E00
0E001C00
0F003800
07C1E000
01FFC000
007E0000
ENDCHAR

STARTCHAR Ocircumflex
ENCODING 212
SWIDTH 600 0
DWIDTH 30 0
BBX 30 39 3 0
BITMAP
00000600
00001F00
00007F80
0000E3C0
0003C0E0
00070070
00060020
00000000
00000000
0001FC00
000FFF00
001E0780
007803C0
00E001C0
01C000E0
03800060
03000070
06000030
0E000030
0C000030
0C000030
18000030
18000030
18000030
30000030
30000060
30000060
30000060
300000C0
300001C0
38000180
38000300
18000700
1C000E00
0E001C00
0F003800
07C1E000
01FFC000
007E0000
ENDCHAR

STARTCHAR Ohungarumlaut
ENCODING 213
SWIDTH 600 0
DWIDTH 30 0
BBX 30 40 3 0
BITMAP
00000818
00001838
00003070
0000E0E0
0001C1C0
00038300
00070600
00040400
00000000
00000000
0001FC00
000FFF00
001E0780
007803C0
00E001C0
01C000E0
03800060
03000070
06000030
0E000030
0C000030
0C000030
18000030
18000030
18000030
30000030
30000060
30000060
30000060
300000C0
300001C0
38000180
38000300
18000700
1C000E00
0E001C00
0F003800
07C1E000
01FFC000
007E0000
ENDCHAR

STARTCHAR Odieresis
ENCODING 214
SWIDTH 600 0
DWIDTH 30 0
BBX 30 37 3 0
BITMAP
0001C070
0003C0F0
0003C0F0
00038060
00000000
00000000
00000000
0001FC00
0007FF00
001E0780
003801C0
00E000C0
01C000E0
01800060
03000070
06000030
06000030
0C000030
0C000030
18000030
18000030
18000030
30000030
30000060
30000060
30000060
300000C0
300000C0
38000180
38000300
18000700
1C000E00
0E001C00
0F003800
07C0F000
01FFC000
007E0000
ENDCHAR

STARTCHAR multiply
ENCODING 215
SWIDTH 600 0
DWIDTH 30 0
BBX 21 17 9 6
BITMAP
000020
0C0070
0E00E0
0701C0
030380
018F00
01DC00
00F800
007000
00F800
01D800
038C00
070E00
0E0700
1C0380
380180
700180
ENDCHAR

STARTCHAR Rcaron
ENCODING 216
SWIDTH 600 0
DWIDTH 30 0
BBX 31 39 0 0
BITMAP
00010008
0001C038
0001E070
0000F1E0
00007B80
00001F00
00000C00
00000000
00000000
00000000
00FFFF80
00FFFFC0
001801F0
00180070
00180038
00180018
00380018
00300018
00300018
00300030
00300070
007000E0
006001C0
00600F80
007FFE00
007FF000
00C03800
00C01C00
00C00E00
00C00700
00C00300
01800380
01800180
01800180
018001C0
018000C0
030000E0
3FF80078
3FF80078
ENDCHAR

STARTCHAR Uring
ENCODING 217
SWIDTH 600 0
DWIDTH 30 0
BBX 30 40 5 0
BITMAP
00007000
0001F800
00030C00
00020C00
00060C00
00060800
00061800
0003F000
0000C000
00000000
00000000
1FF81FF8
1FF81FF0
03000180
03000180
06000180
06000380
06000300
06000300
06000300
0C000300
0C000600
0C000600
0C000600
18000600
18000600
18000C00
18000C00
18000C00
30000C00
30000C00
30001800
30001800
30003000
38007000
1800E000
1C01C000
0F078000
07FE0000
01F80000
ENDCHAR

STARTCHAR Uacute
ENCODING 218
SWIDTH 600 0
DWIDTH 30 0
BBX 31 39 5 0
BITMAP
00000700
00000E00
00001C00
00007000
0000E000
0001C000
00030000
00000000
00000000
00000000
1FF81FF8
1FF81FF8
030000C0
03000180
06000180
06000180
06000180
06000300
04000300
0C000300
0C000300
0C000300
0C000600
18000600
18000600
18000600
18000600
18000C00
30000C00
30000C00
30000C00
30001800
30003800
38003000
18006000
1C01C000
0F078000
07FF0000
01F80000
ENDCHAR

STARTCHAR Uhungarumlaut
ENCODING 219
SWIDTH 600 0
DWIDTH 30 0
BBX 31 39 5 0
BITMAP
0000C1C0
0001C380
00038700
00060E00
001C1C00
00383000
00306000
00000000
00000000
00000000
1FF81FF8
1FF81FF8
030000C0
03000180
06000180
06000180
06000180
06000300
04000300
0C000300
0C000300
0C000300
0C000600
18000600
18000600
18000600
18000600
18000C00
30000C00
30000C00
30000C00
30001800
30003800
38003000
18006000
1C01C000
0F078000
07FF0000
01F80000
ENDCHAR

STARTCHAR Udieresis
ENCODING 220
SWIDTH 600 0
DWIDTH 30 0
BBX 31 37 5 0
BITMAP
000E0380
001E0780
001E0780
001C0700
00000000
00000000
00000000
00000000
1FFC1FF8
1FFC1FF8
030000C0
03000180
07000180
06000180
06000180
06000180
06000300
0C000300
0C000300
0C000300
0C000300
1C000600
18000600
18000600
18000600
18000C00
30000C00
30000C00
30000C00
30001800
30001800
38003000
18006000
1C00E000
0F038000
07FF0000
01FC0000
ENDCHAR

STARTCHAR Yacute
ENCODING 221
SWIDTH 600 0
DWIDTH 30 0
BBX 29 39 6 0
BITMAP
00000C00
00001C00
00007000
0000E000
0001C000
00070000
00060000
00000000
00000000
00000000
3FC01FE0
3FC01FE0
0E000300
06000600
07000C00
03001800
03803800
01807000
01C0E000
00C0C000
00C18000
00E30000
00660000
007E0000
003C0000
00380000
00300000
00300000
00300000
00300000
00600000
00600000
00600000
00600000
00600000
00C00000
00C00000
7FFF8000
7FFF0000
ENDCHAR

STARTCHAR Tcommaaccent
ENCODING 222
SWIDTH 600 0
DWIDTH 30 0
BBX 28 42 6 -13
BITMAP
0FFFFFE0
1FFFFFC0
180300C0
180600C0
180600C0
180600C0
30060180
30060180
300C0180
300C0180
200C0100
000C0000
000C0000
00180000
00180000
00180000
00180000
00180000
00300000
00300000
00300000
00300000
00700000
00600000
00600000
00600000
00600000
3FFF8000
3FFF8000
00000000
00000000
00000000
01C00000
03E00000
07E00000
07C00000
03C00000
01800000
03800000
07000000
0E000000
0C000000
ENDCHAR

STARTCHAR germandbls
ENCODING 223
SWIDTH 600 0
DWIDTH 30 0
BBX 29 32 0 -1
BITMAP
00007E00
0001FF00
00038380
000601C0
000C00C0
001C00C0
001800C0
001800C0
001801C0
00380180
00300300
00300F00
00307C00
0030FE00
00700F80
006003C0
006001C0
006000E0
006000E0
00C00060
00C00060
00C00060
00C00060
01C00060
018000C0
018300C0
018301C0
01830180
03030300
3FC38E00
3FC1FC00
0000F800
ENDCHAR

STARTCHAR racute
ENCODING 224
SWIDTH 600 0
DWIDTH 30 0
BBX 30 33 3 0
BITMAP
00000040
000000C0
00000380
00000700
00001E00
00003800
00007000
00004000
00000000
00000000
00000000
000007C0
01FC1FE0
01FC7870
0008E030
0019C000
001F0000
001E0000
001C0000
00300000
00300000
00300000
00300000
00300000
00600000
00600000
00600000
00600000
00E00000
00C00000
00C00000
3FFFF000
3FFFF000
ENDCHAR

STARTCHAR aacute
ENCODING 225
SWIDTH 600 0
DWIDTH 30 0
BBX 27 34 3 -1
BITMAP
00000080
00000180
00000700
00000E00
00003C00
00007000
0000E000
00008000
00000000
00000000
00000000
0007F000
007FFC00
00F81E00
00800700
00000300
00000300
00000300
00000300
00000600
003FF600
01FFFE00
03E01E00
0F000600
1C000C00
18000C00
38000C00
30000C00
30003C00
30007800
3801F800
1C0F9F80
0FFE1F80
03F80000
ENDCHAR

STARTCHAR acircumflex
ENCODING 226
SWIDTH 600 0
DWIDTH 30 0
BBX 28 33 3 -1
BITMAP
00001800
00003C00
0000EE00
0001C700
00070380
000E01C0
000800C0
00000000
00000000
00000000
0007F000
007FFC00
00F81E00
00800700
00000300
00000300
00000300
00000300
00000600
003FF600
01FFFE00
03E01E00
0F000600
1C000C00
18000C00
38000C00
30000C00
30003C00
30007800
3801F800
1C0F9F80
0FFE1F80
03F80000
ENDCHAR

STARTCHAR abreve
ENCODING 227
SWIDTH 600 0
DWIDTH 30 0
BBX 29 33 3 -1
BITMAP
00040020
000C0060
000C0060
000E00C0
00070380
0003FF00
0001FC00
00000000
00000000
00000000
0007F000
007FFC00
00F81E00
00800700
00000300
00000300
00000300
00000300
00000600
003FF600
01FFFE00
07C01E00
0F000E00
1C000C00
18000C00
30000C00
30000C00
30003800
30007800
3801F800
1C0F9F80
0FFE3F80
07F00000
ENDCHAR

STARTCHAR adieresis
ENCODING 228
SWIDTH 600 0
DWIDTH 30 0
BBX 29 31 2 -1
BITMAP
000700E0
000F01E0
000F01E0
000E01C0
00000000
00000000
00000000
00000000
0007F000
007FFC00
00F81E00
00800700
00000300
00000300
00000300
00000300
00000600
003FF600
01FFFE00
03E01E00
0F000600
1C000C00
18000C00
38000C00
30000C00
30003C00
30007800
3801F800
1C0F9F80
0FFE1F80
03F80000
ENDCHAR

STARTCHAR lacute
ENCODING 229
SWIDTH 600 0
DWIDTH 30 0
BBX 27 40 3 0
BITMAP
00000180
00000780
00000E00
00001C00
00007000
0000E000
0000C000
00000000
00000000
003FE000
003FE000
00006000
00006000
00006000
0000C000
0000C000
0000C000
0000C000
0000C000
00018000
00018000
00018000
00018000
00038000
00030000
00030000
00030000
00030000
00060000
00060000
00060000
00060000
00060000
000C0000
000C0000
000C0000
000C0000
000C0000
3FFFFE00
3FFFFC00
ENDCHAR

STARTCHAR cacute
ENCODING 230
SWIDTH 600 0
DWIDTH 30 0
BBX 27 33 4 -1
BITMAP
000001C0
00000380
00000E00
00001C00
00003800
0000E000
0000C000
00000000
00000000
00000000
000FF000
003FFCC0
00F01EC0
01C00780
03800380
07000380
0E000180
0C000100
18000000
18000000
18000000
30000000
30000000
30000000
30000000
30000000
38000000
18000700
1C000E00
0E003C00
0F81F000
03FFC000
00FE0000
ENDCHAR

STARTCHAR ccedilla
ENCODING 231
SWIDTH 600 0
DWIDTH 30 0
BBX 28 30 4 -8
BITMAP
0007F000
003FFCC0
00F01FC0
01C007C0
038003C0
06000180
0E000180
0C000180
18000000
18000000
30000000
30000000
30000000
30000000
30000000
30000000
38000300
1C000700
1E001E00
0F80F800
03FFE000
00FF0000
00300000
00200000
00380000
001C0000
000C0000
02080000
03F80000
00E00000
ENDCHAR

STARTCHAR ccaron
ENCODING 232
SWIDTH 600 0
DWIDTH 30 0
BBX 29 33 4 -1
BITMAP
00060020
000700E0
000381C0
0001C780
0000EE00
00007C00
00003000
00000000
00000000
00000000
000FF000
003FFCC0
00F01EC0
01C00780
03800380
07000380
0E000180
0C000100
18000000
18000000
18000000
30000000
30000000
30000000
30000000
30000000
38000000
18000700
1C000E00
0E003C00
0F81F000
03FFC000
00FE0000
ENDCHAR

STARTCHAR eacute
ENCODING 233
SWIDTH 600 0
DWIDTH 30 0
BBX 27 34 3 -1
BITMAP
00000080
00000380
00000700
00000E00
00003800
00007000
0000E000
00008000
00000000
00000000
00000000
000FE000
003FF800
00F03E00
01C00E00
03800700
06000380
0E000380
0C000180
18000180
18000180
3FFFFF80
3FFFFF80
30000000
30000000
30000000
30000000
38000000
18000000
1C000600
0E001E00
0780F800
03FFE000
00FF0000
ENDCHAR

STARTCHAR eogonek
ENCODING 234
SWIDTH 600 0
DWIDTH 30 0
BBX 27 29 4 -7
BITMAP
000FE000
003FF800
00F03E00
01C00E00
03000700
06000380
0C000380
1C000180
18000180
18000180
3FFFFF80
3FFFFF80
30000000
30000000
30000000
30000000
38000000
18000000
1C000600
0E001E00
0780F800
03FFE000
007F0000
00300000
00200000
00600000
00618000
003F8000
001E0000
ENDCHAR

STARTCHAR edieresis
ENCODING 235
SWIDTH 600 0
DWIDTH 30 0
BBX 28 31 4 -1
BITMAP
000701C0
000F03C0
000F03C0
000E0180
00000000
00000000
00000000
00000000
000FE000
003FF800
00F03E00
01C00E00
03800700
06000380
0E000380
0C000180
18000180
18000180
3FFFFF80
3FFFFF80
30000000
30000000
30000000
30000000
38000000
18000000
1C000600
0E001E00
0780F800
03FFE000
00FF0000
ENDCHAR

STARTCHAR ecaron
ENCODING 236
SWIDTH 600 0
DWIDTH 30 0
BBX 28 33 3 -1
BITMAP
00060060
000700E0
00078380
0003C700
0001FE00
00007800
00003000
00000000
00000000
00000000
000FE000
003FF800
00F03E00
01C00E00
03800700
06000380
0E000380
0C000180
18000180
18000180
3FFFFF80
3FFFFF80
30000000
30000000
30000000
30000000
38000000
18000000
1C000600
0E001E00
0780F800
03FFE000
00FF0000
ENDCHAR

STARTCHAR iacute
ENCODING 237
SWIDTH 600 0
DWIDTH 30 0
BBX 26 32 3 0
BITMAP
00000300
00000E00
00001C00
00003800
0000E000
0001C000
00018000
00000000
00000000
00000000
00000000
00FF8000
00FF8000
00018000
00018000
00018000
00030000
00030000
00030000
00030000
00070000
00060000
00060000
00060000
00060000
000C0000
000C0000
000C0000
000C0000
000C0000
3FFFFE00
3FFFFC00
ENDCHAR

STARTCHAR icircumflex
ENCODING 238
SWIDTH 600 0
DWIDTH 30 0
BBX 26 32 3 0
BITMAP
00002000
00007000
0001F800
00039E00
000F0F00
001C0780
00300380
00000000
00000000
00000000
00000000
00FF8000
00FF8000
00018000
00018000
00018000
00030000
00030000
00030000
00030000
00070000
00060000
00060000
00060000
00060000
000C0000
000C0000
000C0000
000C0000
000C0000
3FFFFE00
3FFFFC00
ENDCHAR

STARTCHAR dcaron
ENCODING 239
SWIDTH 600 0
DWIDTH 30 0
BBX 38 32 3 -1
BITMAP
000003F0F0
000003F1F0
00000031F0
00000061F0
0000006060
00000060C0
0000006180
0000006380
000000C200
000FE0C000
003FF0C000
00F03CC000
01C01D8000
03800F8000
0600078000
0E00038000
0C00038000
1800030000
1800030000
1800030000
3000030000
3000030000
3000060000
3000060000
30000E0000
38001E0000
18001E0000
1C007C0000
0E00EC0000
0F83CFC000
03FF0FC000
00FC000000
ENDCHAR

STARTCHAR dcroat
ENCODING 240
SWIDTH 600 0
DWIDTH 30 0
BBX 33 32 3 -1
BITMAP
000003F000
000003F000
0000003000
0000003000
0000FFFE00
0000FFFE00
0000006000
0000006000
0000006000
000FE0C000
003FF8C000
00F03CC000
01C00EC000
038006C000
0700078000
0E00038000
0C00038000
1800038000
1800038000
1800030000
3000030000
3000030000
3000030000
3000070000
30000E0000
38000E0000
18001E0000
1C00360000
0E00EC0000
0F83CFC000
03FF0FC000
00FC000000
ENDCHAR

STARTCHAR nacute
ENCODING 241
SWIDTH 600 0
DWIDTH 30 0
BBX 28 32 1 0
BITMAP
000001C0
00000380
00000E00
00001C00
00003800
0000E000
0000C000
00000000
00000000
00000000
0000FE00
01F3FF00
01E70380
006C01C0
007800C0
007000C0
006000C0
00C000C0
00C000C0
00C00180
00C00180
00C00180
01800180
01800180
01800300
01800300
03000300
03000300
03000700
03000600
3FE03FC0
3FE03FC0
ENDCHAR

STARTCHAR ncaron
ENCODING 242
SWIDTH 600 0
DWIDTH 30 0
BBX 29 32 1 0
BITMAP
00060020
000700E0
000381C0
0001C780
0000EE00
00007C00
00003000
00000000
00000000
00000000
0000FE00
01F3FF00
01E70380
006C01C0
007800C0
007000C0
006000C0
00C000C0
00C000C0
00C00180
00C00180
00C00180
01800180
01800180
01800300
01800300
03000300
03000300
03000700
03000600
3FE03FC0
3FE03FC0
ENDCHAR

STARTCHAR oacute
ENCODING 243
SWIDTH 600 0
DWIDTH 30 0
BBX 27 34 4 -1
BITMAP
00000080
00000380
00000700
00000E00
00003C00
00007000
0000E000
00008000
00000000
00000000
00000000
000FE000
003FF800
00F83C00
01C00E00
03800700
07000300
0E000380
0C000180
18000180
18000180
18000180
30000180
30000180
30000300
30000300
30000600
38000E00
18001C00
1C003800
0E007000
0783E000
03FF8000
00FE0000
ENDCHAR

STARTCHAR ocircumflex
ENCODING 244
SWIDTH 600 0
DWIDTH 30 0
BBX 27 33 4 -1
BITMAP
00001800
00007C00
0000EE00
0001C700
00070380
000E01C0
000800C0
00000000
00000000
00000000
000FE000
003FF800
00F83C00
01C00E00
03800700
07000300
0E000380
0C000180
18000180
18000180
18000180
30000180
30000180
30000300
30000300
30000600
38000E00
18001C00
1C003800
0E007000
0783E000
03FF8000
00FE0000
ENDCHAR

STARTCHAR ohungarumlaut
ENCODING 245
SWIDTH 600 0
DWIDTH 30 0
BBX 29 34 4 -1
BITMAP
00000020
00007060
0000E1C0
0001C380
00038700
00060E00
000C1C00
00081000
00000000
00000000
00000000
000FE000
003FF800
00F83C00
01C00E00
03800700
07000300
0E000380
0C000180
18000180
18000180
18000180
30000180
30000180
30000300
30000300
30000600
38000E00
18001C00
1C003800
0E007000
0783E000
03FF8000
00FE0000
ENDCHAR

STARTCHAR odieresis
ENCODING 246
SWIDTH 600 0
DWIDTH 30 0
BBX 28 31 4 -1
BITMAP
000701C0
000F03C0
000F03C0
000E0180
00000000
00000000
00000000
00000000
000FE000
003FF800
00F83C00
01C00E00
03800700
07000300
0E000380
0C000180
18000180
18000180
18000180
30000180
30000180
30000300
30000300
30000600
38000E00
18001C00
1C003800
0E007000
0783E000
03FF8000
00FC0000
ENDCHAR

STARTCHAR divide
ENCODING 247
SWIDTH 600 0
DWIDTH 30 0
BBX 26 24 5 2
BITMAP
00038000
00078000
00078000
00070000
00000000
00000000
00000000
00000000
00000000
00000000
00000000
3FFFFF80
3FFFFF00
00000000
00000000
00000000
00000000
00000000
00000000
00000000
00380000
00780000
00780000
00700000
ENDCHAR

STARTCHAR rcaron
ENCODING 248
SWIDTH 600 0
DWIDTH 30 0
BBX 30 32 3 0
BITMAP
00030030
00038070
0001C1E0
0000E380
00007F00
00003C00
00001800
00000000
00000000
00000000
000007C0
01FC1FE0
01FC7870
0008E030
0019C000
001F0000
001E0000
001C0000
00300000
00300000
00300000
00300000
00300000
00600000
00600000
00600000
00600000
00E00000
00C00000
00C00000
3FFFF000
3FFFF000
ENDCHAR

STARTCHAR uring
ENCODING 249
SWIDTH 600 0
DWIDTH 30 0
BBX 25 34 5 -1
BITMAP
00007800
0001FC00
00030600
00020600
00060600
00060400
00060C00
0003F800
0000C000
00000000
00000000
00000000
7E00FF00
7E00FE00
06000600
06000600
0E000600
0C000C00
0C000C00
0C000C00
0C000C00
18001C00
18001800
18001800
18001800
18001800
30003000
30003000
30007000
3001F000
3807F000
1C1F7C00
1FFC7C00
07E00000
ENDCHAR

STARTCHAR uacute
ENCODING 250
SWIDTH 600 0
DWIDTH 30 0
BBX 25 33 5 -1
BITMAP
00000300
00000E00
00001C00
00007800
0000E000
0001C000
00030000
00000000
00000000
00000000
00000000
7E00FE00
7E00FE00
06000600
06000C00
0E000C00
0C000C00
0C000C00
0C000C00
0C001800
18001800
18001800
18001800
18003000
18003000
30003000
30003000
30007000
3001E000
3807E000
1C1E7C00
1FFC7C00
07E00000
ENDCHAR

STARTCHAR uhungarumlaut
ENCODING 251
SWIDTH 600 0
DWIDTH 30 0
BBX 27 33 5 -1
BITMAP
0000C0C0
0001C380
00038700
00070E00
000C1C00
00383800
00306000
00000000
00000000
00000000
00000000
7E00FE00
7E00FE00
06000600
06000C00
0E000C00
0C000C00
0C000C00
0C000C00
0C001800
18001800
18001800
18001800
18003000
18003000
30003000
30003000
30007000
3001E000
3807E000
1C1E7C00
1FFC7C00
07E00000
ENDCHAR

STARTCHAR udieresis
ENCODING 252
SWIDTH 600 0
DWIDTH 30 0
BBX 27 31 5 -1
BITMAP
000E0380
001E0780
001E0780
001C0700
00000000
00000000
00000000
00000000
00000000
7F00FE00
7E00FE00
06000600
06000C00
06000C00
0C000C00
0C000C00
0C000C00
0C001800
1C001800
18001800
18001800
18001800
18003000
30003000
30003000
30007000
3001F000
3803E000
1C1F7C00
1FFC7C00
07E00000
ENDCHAR

STARTCHAR yacute
ENCODING 253
SWIDTH 600 0
DWIDTH 30 0
BBX 35 41 -1 -9
BITMAP
0000001800
0000003800
000000F000
000001C000
0000038000
00000E0000
00000C0000
0000000000
0000000000
0000000000
0000000000
00FF007F80
00FF007F80
0030000E00
0030000C00
0038001800
0018003000
0018007000
001C006000
000C00C000
000C01C000
000C018000
000E030000
0006060000
00060E0000
00070C0000
0003180000
0003300000
0003300000
0003E00000
0001C00000
0001C00000
0001800000
0003000000
0006000000
000E000000
000C000000
0018000000
0038000000
3FFF000000
3FFF000000
ENDCHAR

STARTCHAR tcommaaccent
ENCODING 254
SWIDTH 600 0
DWIDTH 30 0
BBX 22 41 7 -13
BITMAP
00C000
018000
018000
018000
018000
018000
030000
7FFFF8
7FFFF0
030000
030000
060000
060000
060000
060000
060000
0C0000
0C0000
0C0000
0C0000
0C0000
180000
180000
180000
180000
1C0070
0E03E0
0FFF80
03FC00
000000
000000
01C000
03E000
07E000
07C000
03C000
018000
038000
070000
060000
0C0000
ENDCHAR

STARTCHAR dotaccent
ENCODING 255
SWIDTH 600 0
DWIDTH 30 0
BBX 9 5 16 25
BITMAP
0C00
3E00
3E00
3E00
1C00
ENDCHAR
ENDFONT
